<?xml version="1.0" encoding="utf-8"?>
<!-- Generator: Adobe Illustrator 15.1.0, SVG Export Plug-In . SVG Version: 6.00 Build 0)  -->
<svg version="1.2" baseProfile="tiny" id="Layer_1" xmlns="http://www.w3.org/2000/svg" xmlns:xlink="http://www.w3.org/1999/xlink"
	 x="0px" y="0px" width="322.354px" height="368.506px" viewBox="0 0 322.354 368.506" xml:space="preserve">
<path display="none" fill="#FFFFFF" d="M324.604,450.506c12,0,24.75,0.75,33.75,6.75s14.25,19.5,17.25,27s0,12-6,15
	c-5.25,3-6,1.5-11.25-8.25s-9.75-19.5-36-19.5s-34.5,9-47.25,19.5s-17.25,14.25-21.75,8.25s-3-12,5.25-19.5s21.75-19.5,34.5-24.75
	S312.604,450.506,324.604,450.506L324.604,450.506z"/>
<path display="none" fill="#FFFFFF" d="M200.104,536.006c15,12,37.5,21.75,85.5,21.75s81.75-13.5,96.75-24.75
	c6.75-5.25,9.75-0.75,10.5,2.25s2.25,7.5-3,12.75c-3.75,3.75-38.25,27.75-78.75,31.5s-95.25,6-128.25-24
	c-5.25-5.25-3.75-12.75,0-15.75s6.75-5.25,11.25-5.25S197.854,534.506,200.104,536.006L200.104,536.006z"/>
<path fill="#FFFFFF" d="M280.565,101.236C263.487,82.14,246.532,71.72,241.41,68.518c-18.461-11.715-36.566-16.33-54.317-28.046
	C176.087,33.371,160.821,15.266,148.041,0c-2.485,24.496-9.585,34.791-18.461,41.537c-18.105,14.2-29.466,18.461-45.087,26.98
	C71.357,75.618,0,117.865,0,209.459c0,29.244,7.854,56.026,21.33,78.939c28.733,48.851,83.025,80.107,141.267,80.107
	c85.559,0,159.757-62.128,159.757-156.207C322.354,160.635,301.369,124.498,280.565,101.236z M275.491,305.668
	c-12.78-1.064-38.342-40.826-54.672-41.536c-20.591-0.711-65.323,42.956-100.47,42.956c-21.301,0-27.691-3.194-34.791-7.81
	c-10.65-7.456-15.976-18.816-15.621-34.437c0.355-27.691,26.271-53.607,58.933-53.963c41.537-0.354,70.293,41.182,91.239,40.827
	c17.751-0.355,51.832-35.146,68.518-35.146c17.751,0,22.721,18.461,22.721,29.466c0,11.006-3.55,30.887-12.07,43.313
	C290.757,301.763,285.432,306.378,275.491,305.668z"/>
</svg>
